<svg xmlns="http://www.w3.org/2000/svg">
    <symbol id="share" viewBox="0 0 1792 1792">
        <title>Share</title>
        <path d="M1344 1024q133 0 226.5 93.5t93.5 226.5-93.5 226.5-226.5 93.5-226.5-93.5-93.5-226.5q0-12 2-34l-360-180q-92 86-218 86-133 0-226.5-93.5t-93.5-226.5 93.5-226.5 226.5-93.5q126 0 218 86l360-180q-2-22-2-34 0-133 93.5-226.5t226.5-93.5 226.5 93.5 93.5 226.5-93.5 226.5-226.5 93.5q-126 0-218-86l-360 180q2 22 2 34t-2 34l360 180q92-86 218-86z"/>
    </symbol>
    <symbol id="download" viewBox="0 0 2048 1792">
        <title>Download</title>
        <path d="M1344 928q0-14-9-23t-23-9h-224v-352q0-13-9.5-22.5t-22.5-9.5h-192q-13 0-22.5 9.5t-9.5 22.5v352h-224q-13 0-22.5 9.5t-9.5 22.5q0 14 9 23l352 352q9 9 23 9t23-9l351-351q10-12 10-24zm640 224q0 159-112.5 271.5t-271.5 112.5h-1088q-185 0-316.5-131.5t-131.5-316.5q0-130 70-240t188-165q-2-30-2-43 0-212 150-362t362-150q156 0 285.5 87t188.5 231q71-62 166-62 106 0 181 75t75 181q0 76-41 138 130 31 213.5 135.5t83.5 238.5z"/>
    </symbol>
    <symbol id="start-over" viewBox="0 0 1792 1792">
        <title>Start Over</title>
        <path d="M1664 256v448q0 26-19 45t-45 19h-448q-42 0-59-40-17-39 14-69l138-138q-148-137-349-137-104 0-198.5 40.5t-163.5 109.5-109.5 163.5-40.5 198.5 40.5 198.5 109.5 163.5 163.5 109.5 198.5 40.5q119 0 225-52t179-147q7-10 23-12 15 0 25 9l137 138q9 8 9.5 20.5t-7.5 22.5q-109 132-264 204.5t-327 72.5q-156 0-298-61t-245-164-164-245-61-298 61-298 164-245 245-164 298-61q147 0 284.5 55.5t244.5 156.5l130-129q29-31 70-14 39 17 39 59z"/>
    </symbol>
    <symbol id="image" viewBox="0 0 2048 1792">
        <title>Image</title>
        <path d="M704 576q0 80-56 136t-136 56-136-56-56-136 56-136 136-56 136 56 56 136zm1024 384v448h-1408v-192l320-320 160 160 512-512zm96-704h-1600q-13 0-22.5 9.5t-9.5 22.5v1216q0 13 9.5 22.5t22.5 9.5h1600q13 0 22.5-9.5t9.5-22.5v-1216q0-13-9.5-22.5t-22.5-9.5zm160 32v1216q0 66-47 113t-113 47h-1600q-66 0-113-47t-47-113v-1216q0-66 47-113t113-47h1600q66 0 113 47t47 113z"/>
    </symbol>
</svg>